<?xml version="1.0" standalone="no"?>
<!DOCTYPE svg PUBLIC "-//W3C//DTD SVG 20010904//EN"
 "http://www.w3.org/TR/2001/REC-SVG-20010904/DTD/svg10.dtd">
<svg version="1.0" xmlns="http://www.w3.org/2000/svg"
 width="756.000000pt" height="756.000000pt" viewBox="0 0 756.000000 756.000000"
 preserveAspectRatio="xMidYMid meet">
<metadata>
Created by potrace 1.14, written by Peter Selinger 2001-2017
</metadata>
<g transform="translate(0.000000,756.000000) scale(0.100000,-0.100000)"
fill="#000000" stroke="none">
<path d="M3499 7295 c-2 -2 -38 -6 -79 -9 -41 -3 -91 -8 -110 -11 -19 -2 -57
-7 -85 -10 -27 -4 -57 -8 -65 -10 -8 -2 -40 -7 -70 -10 -30 -4 -58 -9 -62 -11
-4 -3 -24 -7 -45 -9 -31 -4 -109 -21 -273 -60 -8 -2 -15 -4 -15 -5 0 -1 -8 -3
-17 -5 -19 -4 -216 -63 -238 -72 -8 -3 -19 -7 -25 -9 -45 -11 -361 -140 -410
-167 -11 -6 -22 -12 -25 -12 -11 -2 -190 -98 -273 -147 -26 -15 -50 -28 -53
-28 -3 0 -10 -5 -17 -10 -7 -6 -59 -42 -117 -80 -114 -75 -146 -98 -166 -117
-7 -7 -15 -13 -18 -13 -3 0 -16 -9 -28 -19 -13 -10 -66 -54 -118 -97 -108 -91
-332 -311 -405 -399 -28 -33 -53 -62 -56 -65 -11 -10 -156 -206 -185 -250 -16
-25 -31 -47 -34 -50 -31 -29 -205 -355 -259 -485 -18 -44 -37 -89 -42 -100
-24 -55 -57 -155 -52 -155 3 0 -1 -7 -8 -17 -8 -9 -13 -19 -12 -22 1 -3 -5
-30 -14 -60 -8 -29 -16 -59 -18 -65 -1 -6 -5 -18 -8 -26 -3 -8 -8 -28 -12 -45
-3 -16 -10 -50 -16 -75 -16 -69 -17 -77 -34 -190 -27 -177 -30 -227 -30 -465
0 -205 5 -305 19 -385 3 -14 7 -47 11 -73 5 -42 11 -77 29 -167 3 -14 10 -46
16 -71 6 -26 12 -54 14 -63 1 -8 5 -19 9 -22 4 -4 7 -14 7 -23 0 -26 63 -216
115 -346 98 -245 262 -532 429 -750 33 -44 66 -85 71 -92 6 -6 32 -37 59 -70
94 -111 384 -390 459 -442 12 -8 27 -20 33 -26 17 -16 63 -51 139 -106 39 -27
78 -56 88 -64 9 -8 20 -15 23 -15 3 0 35 -20 72 -43 115 -75 432 -248 462
-252 3 -1 28 -11 55 -24 149 -68 487 -185 620 -216 6 -1 28 -6 50 -10 22 -5
42 -10 45 -10 3 -1 16 -5 30 -8 25 -7 66 -15 105 -22 20 -3 63 -11 100 -19 11
-2 40 -7 65 -10 25 -3 56 -8 70 -10 246 -41 702 -51 990 -21 111 11 176 20
230 30 14 3 43 7 65 10 22 3 54 8 70 11 17 4 39 8 50 9 11 2 20 4 20 5 0 1 11
4 25 6 53 10 270 66 366 95 l100 31 120 -78 c144 -95 401 -226 543 -277 100
-37 305 -94 366 -102 17 -3 41 -7 55 -10 105 -23 469 -27 555 -7 28 7 68 15
90 18 22 3 60 13 85 21 25 9 50 16 55 17 73 13 358 160 380 196 3 5 -63 103
-148 217 -84 114 -198 269 -252 343 -55 74 -103 140 -107 145 -5 6 -33 44 -63
85 -127 175 -208 284 -215 290 -3 3 -16 19 -28 37 -23 32 -34 46 -152 180
-125 144 -277 289 -421 403 -35 28 -72 57 -81 65 -94 78 -377 241 -526 305
-95 40 -126 53 -132 55 -3 0 -45 13 -95 28 -49 16 -103 32 -120 37 -16 5 -43
11 -60 14 -16 3 -41 8 -55 11 -49 9 -86 16 -130 23 -58 8 -403 8 -455 -1 -151
-26 -209 -38 -222 -49 -7 -6 -13 -8 -13 -4 0 9 -155 -50 -240 -92 -91 -44
-200 -113 -200 -127 0 -9 53 -83 112 -159 13 -16 25 -34 27 -40 2 -6 7 -13 10
-16 3 -3 19 -23 36 -45 16 -22 32 -42 35 -45 4 -3 15 -20 25 -37 11 -18 23
-33 27 -33 4 0 8 -5 8 -10 0 -6 9 -20 20 -32 11 -12 18 -24 15 -27 -19 -19
-354 -12 -505 10 -111 17 -113 17 -140 24 -14 3 -36 8 -50 10 -42 6 -201 52
-275 80 -38 15 -74 28 -80 29 -29 8 -232 105 -250 119 -5 4 -41 26 -80 49
-189 112 -430 328 -535 478 -13 19 -27 37 -31 40 -12 9 -96 143 -137 220 -79
147 -157 372 -177 516 -3 21 -8 50 -10 64 -5 22 -17 187 -17 215 1 48 12 208
17 240 14 92 26 152 36 185 5 19 12 44 15 55 3 11 6 25 8 30 2 6 6 24 11 40 4
17 11 35 15 40 3 6 15 33 25 60 10 28 27 68 38 90 11 22 18 41 16 41 -2 1 4
11 14 21 9 11 14 23 10 26 -3 4 -1 7 5 7 7 0 12 4 12 9 0 11 59 110 78 129 6
7 12 17 12 22 0 5 6 15 13 22 6 7 31 39 55 70 23 32 60 76 82 98 22 22 40 45
40 50 0 6 3 10 8 10 4 0 42 33 84 74 43 40 78 71 78 67 0 -3 4 -1 8 4 47 64
350 249 537 327 154 65 376 126 515 144 24 3 47 7 50 9 35 21 593 23 628 2 4
-3 30 -8 57 -11 28 -3 61 -8 75 -11 14 -3 37 -7 52 -10 15 -3 40 -10 55 -16
15 -6 29 -10 31 -10 5 2 58 -11 82 -20 14 -5 34 -11 45 -13 24 -5 93 -31 152
-57 24 -10 46 -19 49 -19 32 0 310 -157 413 -233 130 -96 279 -235 362 -338
19 -23 46 -56 60 -73 14 -17 28 -35 30 -41 2 -5 25 -41 50 -80 49 -73 125
-215 148 -275 54 -142 91 -272 106 -370 17 -112 20 -139 20 -172 0 -21 3 -38
7 -38 4 0 5 -6 3 -12 -3 -7 -7 -65 -9 -128 -6 -143 -13 -189 -42 -315 -24
-102 -26 -107 -42 -160 -23 -72 -116 -280 -132 -295 -3 -3 -11 -18 -19 -35 -7
-16 -10 -27 -6 -23 5 5 66 -9 240 -56 21 -6 183 -68 237 -90 21 -9 39 -15 41
-14 2 2 10 -2 18 -8 12 -10 95 -56 220 -121 15 -7 32 -20 39 -28 7 -8 16 -15
21 -15 7 0 67 -36 94 -57 6 -5 44 -33 85 -63 41 -30 77 -57 80 -60 3 -3 19
-16 35 -29 43 -32 180 -157 240 -217 44 -45 75 -59 75 -34 0 4 24 47 54 94
108 172 278 549 301 668 2 9 8 25 13 35 6 10 11 23 11 28 3 21 15 69 20 85 6
16 23 89 26 113 3 16 7 32 10 37 3 4 7 25 11 46 3 22 7 50 10 64 31 175 39
278 39 515 0 190 -5 302 -20 405 -10 75 -16 117 -20 130 -2 8 -7 31 -10 50 -3
19 -10 51 -15 70 -5 19 -11 49 -14 65 -6 31 -61 227 -73 255 -3 8 -7 20 -8 25
-15 67 -151 370 -233 517 -72 131 -223 358 -244 366 -4 2 -8 8 -8 14 0 6 -32
49 -72 97 -188 224 -408 437 -603 581 -58 43 -67 50 -99 78 -8 6 -17 12 -20
12 -2 0 -40 24 -83 54 -168 115 -534 310 -648 346 -22 7 -45 17 -51 22 -10 7
-274 103 -314 114 -8 2 -31 8 -50 13 -140 39 -261 71 -290 76 -19 3 -42 8 -50
10 -47 13 -308 54 -380 59 -36 3 -65 6 -65 7 0 9 -677 23 -686 14z"/>
</g>
</svg>
